<svg width="111" height="35" viewBox="0 0 111 35" fill="none" xmlns="http://www.w3.org/2000/svg">
<path d="M26.8083 3.674H15.9303L13.9983 12.704H22.4403L21.6843 16.316H13.2423L10.5543 29H0.894297L6.0603 4.556C6.3683 3.184 7.0263 2.092 8.0343 1.28C9.0423 0.439998 10.2183 0.0199976 11.5623 0.0199976H27.5643L26.8083 3.674ZM46.9923 29H28.8903C27.5183 29 26.4963 28.594 25.8243 27.782C25.1802 26.942 25.0122 25.836 25.3202 24.464L27.1263 15.854C27.3503 14.79 27.8683 13.922 28.6803 13.25C29.4923 12.578 30.4303 12.242 31.4943 12.242H41.6583L42.3723 9.008H33.0483L33.7203 5.816H48.3363C49.4003 5.816 50.1843 6.152 50.6883 6.824C51.2203 7.496 51.3743 8.364 51.1503 9.428L46.9923 29ZM36.1562 15.476L33.9303 25.808H38.7603L40.9863 15.476H36.1562ZM65.0933 3.212H56.1473L56.8193 0.0199976H65.7653L65.0933 3.212ZM59.6333 29H50.6873L55.6013 5.816H64.5473L59.6333 29ZM85.204 8.714L72.814 26.102H81.508L80.878 29H63.238L63.868 26.102L76.258 8.714H67.564L68.194 5.816H85.834L85.204 8.714ZM87.2427 31.604H96.4827L97.0287 29H87.7467C86.3747 29 85.3527 28.594 84.6807 27.782C84.0367 26.942 83.8687 25.836 84.1767 24.464L88.1667 5.816H97.1127L92.8707 25.808H97.7007L101.943 5.816H110.847L105.681 30.26C105.373 31.632 104.715 32.724 103.707 33.536C102.699 34.376 101.523 34.796 100.179 34.796H86.5287L87.2427 31.604Z" fill="white"/>
</svg>
